<svg xmlns="http://www.w3.org/2000/svg" xmlns:xlink="http://www.w3.org/1999/xlink" width="1024"
    zoomAndPan="magnify" viewBox="0 0 768 767.999994" height="1024"
    preserveAspectRatio="xMidYMid meet" version="1.0">
    <defs>
        <clipPath id="82ff21ecb7">
            <path d="M 18 52.800781 L 768 52.800781 L 768 695 L 18 695 Z M 18 52.800781 "
                clip-rule="nonzero" />
        </clipPath>
    </defs>
    <g clip-path="url(#82ff21ecb7)">
        <path fill="#ffce00"
            d="M 161.511719 679.378906 C 60.097656 642.054688 0.257812 534.660156 23.566406 429.15625 C 29.597656 401.839844 41.226562 373.238281 61.507812 345.535156 C 142.628906 234.726562 351.472656 195.933594 351.472656 195.933594 L 281.550781 278.8125 C 281.550781 278.8125 743.820312 103.902344 767.824219 52.765625 C 767.125 125.0625 558.5 477.675781 514.414062 520.085938 C 534.105469 516.640625 555.964844 518.175781 579.988281 506.089844 C 585.453125 503.34375 590.371094 510.613281 585.734375 514.621094 C 525.054688 567.03125 424.773438 687.363281 264.300781 694.664062 C 224.589844 696.472656 190.402344 690.007812 161.511719 679.378906 "
            fill-opacity="1" fill-rule="nonzero" />
    </g>
    <path fill="#f58014"
        d="M 74.816406 572.675781 C 45.632812 497.527344 66.792969 409.535156 114.40625 367.40625 C 162.019531 325.277344 228.214844 311.160156 345.890625 308.652344 C 463.5625 306.144531 624.925781 200.820312 624.925781 200.820312 C 624.925781 200.820312 505.332031 553.972656 317.207031 650.726562 C 192 715.125 96.242188 620.417969 74.816406 572.675781 "
        fill-opacity="1" fill-rule="nonzero" />
    <path fill="#e65747"
        d="M 399.90625 498.257812 C 399.90625 589 326.347656 662.566406 235.597656 662.566406 C 144.855469 662.566406 71.289062 589 71.289062 498.257812 C 71.289062 407.515625 144.855469 333.949219 235.597656 333.949219 C 326.347656 333.949219 399.90625 407.515625 399.90625 498.257812 "
        fill-opacity="1" fill-rule="nonzero" />
    <path fill="#d44021"
        d="M 401.953125 485.039062 C 401.953125 551.816406 347.828125 605.953125 281.054688 605.953125 C 214.277344 605.953125 160.152344 551.816406 160.152344 485.039062 C 160.152344 418.277344 214.277344 364.140625 281.054688 364.140625 C 347.828125 364.140625 401.953125 418.277344 401.953125 485.039062 "
        fill-opacity="1" fill-rule="nonzero" />
    <path fill="#992e1f"
        d="M 139.183594 460.382812 C 139.183594 470.144531 131.269531 478.058594 121.5 478.058594 C 111.738281 478.058594 103.828125 470.144531 103.828125 460.382812 C 103.828125 450.625 111.738281 442.703125 121.5 442.703125 C 131.269531 442.703125 139.183594 450.625 139.183594 460.382812 "
        fill-opacity="1" fill-rule="nonzero" />
    <path fill="#992e1f"
        d="M 238.285156 631.328125 C 238.285156 641.085938 230.371094 649 220.613281 649 C 210.851562 649 202.941406 641.085938 202.941406 631.328125 C 202.941406 621.554688 210.851562 613.644531 220.613281 613.644531 C 230.371094 613.644531 238.285156 621.554688 238.285156 631.328125 "
        fill-opacity="1" fill-rule="nonzero" />
    <path fill="#992e1f"
        d="M 285.71875 386.714844 C 285.71875 396.476562 277.796875 404.390625 268.046875 404.390625 C 258.273438 404.390625 250.363281 396.476562 250.363281 386.714844 C 250.363281 376.957031 258.273438 369.042969 268.046875 369.042969 C 277.796875 369.042969 285.71875 376.957031 285.71875 386.714844 "
        fill-opacity="1" fill-rule="nonzero" />
    <path fill="#992e1f"
        d="M 246.347656 515.601562 C 246.347656 529.816406 234.828125 541.335938 220.613281 541.335938 C 206.394531 541.335938 194.878906 529.816406 194.878906 515.601562 C 194.878906 501.394531 206.394531 489.867188 220.613281 489.867188 C 234.828125 489.867188 246.347656 501.394531 246.347656 515.601562 "
        fill-opacity="1" fill-rule="nonzero" />
    <path fill="#992e1f"
        d="M 374.570312 496.5 C 374.570312 520.375 355.21875 539.726562 331.355469 539.726562 C 307.476562 539.726562 288.125 520.375 288.125 496.5 C 288.125 472.621094 307.476562 453.269531 331.355469 453.269531 C 355.21875 453.269531 374.570312 472.621094 374.570312 496.5 "
        fill-opacity="1" fill-rule="nonzero" />
</svg>