<svg width="104" height="31" viewBox="0 0 104 31" fill="none" xmlns="http://www.w3.org/2000/svg">
    <rect x="0.771484" y="0.46875" width="29.9259" height="30" rx="4.25427" fill="#3751FF" />
    <path
        d="M5.68799 12.6094L15.8065 22.8141L25.7214 12.6094H19.5118L15.8065 16.4668L11.9993 12.6094H5.68799Z"
        fill="white" />
    <path d="M7.80838 8.12305L5.69824 12.6212H12.0376L7.80838 8.12305Z" fill="white" />
    <path d="M7.80838 8.12305L5.69824 12.6212H12.0376L7.80838 8.12305Z"
        fill="url(#paint0_linear_813_6689)" />
    <path d="M25.7809 12.6213H11.9558L7.83252 8.14746H23.8405L25.7809 12.6213Z" fill="#E3E4F3" />
    <path d="M17.7044 21.5781H13.7861" stroke="#3751FF" stroke-width="0.202584" />
    <path d="M23.6711 8.12305L25.7812 12.6212H19.4419L23.6711 8.12305Z" fill="white" />
    <path d="M23.6711 8.12305L25.7812 12.6212H19.4419L23.6711 8.12305Z"
        fill="url(#paint1_linear_813_6689)" />
    <path d="M40.388 19.7244H44.927V21.9684H38.042V10.0684H40.388V19.7244Z" fill="#3751ff" />
    <path
        d="M52.8938 20.9144C52.0211 21.7757 50.9558 22.2064 49.6978 22.2064C48.4397 22.2064 47.3744 21.7757 46.5017 20.9144C45.6404 20.0417 45.2097 18.9764 45.2097 17.7184C45.2097 16.4604 45.6404 15.4007 46.5017 14.5394C47.3744 13.6667 48.4397 13.2304 49.6978 13.2304C50.9558 13.2304 52.0211 13.6667 52.8938 14.5394C53.7664 15.4007 54.2028 16.4604 54.2028 17.7184C54.2028 18.9764 53.7664 20.0417 52.8938 20.9144ZM48.0487 19.4014C48.4908 19.8434 49.0404 20.0644 49.6978 20.0644C50.3551 20.0644 50.9047 19.8434 51.3468 19.4014C51.7888 18.9594 52.0098 18.3984 52.0098 17.7184C52.0098 17.0384 51.7888 16.4774 51.3468 16.0354C50.9047 15.5934 50.3551 15.3724 49.6978 15.3724C49.0404 15.3724 48.4908 15.5934 48.0487 16.0354C47.6181 16.4774 47.4028 17.0384 47.4028 17.7184C47.4028 18.3984 47.6181 18.9594 48.0487 19.4014Z"
        fill="#3751ff" />
    <path
        d="M61.9165 13.4684H64.0585V21.5604C64.0585 22.875 63.6222 23.878 62.7495 24.5694C61.8882 25.2607 60.8455 25.6064 59.6215 25.6064C58.7035 25.6064 57.8932 25.4307 57.1905 25.0794C56.4992 24.728 55.9665 24.2124 55.5925 23.5324L57.4625 22.4614C57.8932 23.2547 58.6355 23.6514 59.6895 23.6514C60.3808 23.6514 60.9248 23.47 61.3215 23.1074C61.7182 22.7447 61.9165 22.229 61.9165 21.5604V20.6424C61.2705 21.5037 60.3638 21.9344 59.1965 21.9344C57.9952 21.9344 56.9865 21.515 56.1705 20.6764C55.3658 19.8264 54.9635 18.795 54.9635 17.5824C54.9635 16.381 55.3715 15.3554 56.1875 14.5054C57.0035 13.6554 58.0065 13.2304 59.1965 13.2304C60.3638 13.2304 61.2705 13.661 61.9165 14.5224V13.4684ZM57.8195 19.2654C58.2728 19.696 58.8452 19.9114 59.5365 19.9114C60.2278 19.9114 60.7945 19.696 61.2365 19.2654C61.6898 18.8234 61.9165 18.2624 61.9165 17.5824C61.9165 16.9137 61.6898 16.364 61.2365 15.9334C60.7945 15.4914 60.2278 15.2704 59.5365 15.2704C58.8452 15.2704 58.2728 15.4914 57.8195 15.9334C57.3775 16.364 57.1565 16.9137 57.1565 17.5824C57.1565 18.2624 57.3775 18.8234 57.8195 19.2654Z"
        fill="#3751ff" />
    <path
        d="M72.9491 20.9144C72.0764 21.7757 71.0111 22.2064 69.7531 22.2064C68.4951 22.2064 67.4298 21.7757 66.5571 20.9144C65.6958 20.0417 65.2651 18.9764 65.2651 17.7184C65.2651 16.4604 65.6958 15.4007 66.5571 14.5394C67.4298 13.6667 68.4951 13.2304 69.7531 13.2304C71.0111 13.2304 72.0764 13.6667 72.9491 14.5394C73.8218 15.4007 74.2581 16.4604 74.2581 17.7184C74.2581 18.9764 73.8218 20.0417 72.9491 20.9144ZM68.1041 19.4014C68.5461 19.8434 69.0958 20.0644 69.7531 20.0644C70.4104 20.0644 70.9601 19.8434 71.4021 19.4014C71.8441 18.9594 72.0651 18.3984 72.0651 17.7184C72.0651 17.0384 71.8441 16.4774 71.4021 16.0354C70.9601 15.5934 70.4104 15.3724 69.7531 15.3724C69.0958 15.3724 68.5461 15.5934 68.1041 16.0354C67.6734 16.4774 67.4581 17.0384 67.4581 17.7184C67.4581 18.3984 67.6734 18.9594 68.1041 19.4014Z"
        fill="#3751ff" />
    <path
        d="M84.8619 13.2304C85.8365 13.2304 86.6129 13.5477 87.1908 14.1824C87.7802 14.817 88.0749 15.667 88.0749 16.7324V21.9684H85.8819V16.8854C85.8819 16.3754 85.7572 15.9787 85.5079 15.6954C85.2585 15.412 84.9072 15.2704 84.4538 15.2704C83.9552 15.2704 83.5642 15.4347 83.2809 15.7634C83.0089 16.092 82.8729 16.568 82.8729 17.1914V21.9684H80.6799V16.8854C80.6799 16.3754 80.5552 15.9787 80.3059 15.6954C80.0565 15.412 79.7052 15.2704 79.2519 15.2704C78.7645 15.2704 78.3735 15.4347 78.0788 15.7634C77.7955 16.092 77.6539 16.568 77.6539 17.1914V21.9684H75.4608V13.4684H77.6539V14.3694C78.1638 13.61 78.9515 13.2304 80.0168 13.2304C81.0595 13.2304 81.8302 13.6384 82.3288 14.4544C82.8955 13.6384 83.7398 13.2304 84.8619 13.2304Z"
        fill="#3751ff" />
    <path
        d="M91.4504 18.6194C91.7451 19.6847 92.5441 20.2174 93.8474 20.2174C94.6861 20.2174 95.3207 19.934 95.7514 19.3674L97.5194 20.3874C96.6807 21.6 95.4454 22.2064 93.8134 22.2064C92.4081 22.2064 91.2804 21.7814 90.4304 20.9314C89.5804 20.0814 89.1554 19.0104 89.1554 17.7184C89.1554 16.4377 89.5747 15.3724 90.4134 14.5224C91.2521 13.661 92.3287 13.2304 93.6434 13.2304C94.8901 13.2304 95.9157 13.661 96.7204 14.5224C97.5364 15.3837 97.9444 16.449 97.9444 17.7184C97.9444 18.0017 97.9161 18.302 97.8594 18.6194H91.4504ZM91.4164 16.9194H95.7514C95.6267 16.3414 95.3661 15.9107 94.9694 15.6274C94.5841 15.344 94.1421 15.2024 93.6434 15.2024C93.0541 15.2024 92.5667 15.3554 92.1814 15.6614C91.7961 15.956 91.5411 16.3754 91.4164 16.9194Z"
        fill="#3751ff" />
    <defs>
        <linearGradient id="paint0_linear_813_6689" x1="5.69824" y1="12.6212" x2="11.0483"
            y2="12.6212" gradientUnits="userSpaceOnUse">
            <stop stop-color="#0B17FE" stop-opacity="0.14" />
            <stop offset="1" stop-color="#0B17FE" stop-opacity="0" />
        </linearGradient>
        <linearGradient id="paint1_linear_813_6689" x1="25.7812" y1="12.6212" x2="20.4312"
            y2="12.6212" gradientUnits="userSpaceOnUse">
            <stop stop-color="#0B17FE" stop-opacity="0.14" />
            <stop offset="1" stop-color="#0B17FE" stop-opacity="0" />
        </linearGradient>
    </defs>
</svg>